<svg width="6" height="6" viewBox="0 0 6 6" fill="none" xmlns="http://www.w3.org/2000/svg">
<path d="M4.99807 3.88739V2.22137H5.55341V3.88739C5.55341 4.03467 5.4949 4.17593 5.39076 4.28007C5.28661 4.38422 5.14536 4.44273 4.99807 4.44273H1.66602C1.35781 4.44273 1.11068 4.19283 1.11068 3.88739V0.555341C1.11068 0.247127 1.35781 0 1.66602 0H3.88739V0.555341H1.66602V3.88739H4.99807ZM2.47405 1.41057L3.33205 2.26857L5.1619 0.43872L5.55341 0.833012L3.33205 3.05438L2.08253 1.80486L2.47405 1.41057ZM3.88739 4.99807V5.55341H0.555341C0.408056 5.55341 0.266802 5.4949 0.162656 5.39076C0.058509 5.28661 0 5.14536 0 4.99807V1.38835H0.555341V4.99807H3.88739Z" fill="#505258"/>
</svg>
