<svg width="22" height="20" viewBox="0 0 22 20" fill="none" xmlns="http://www.w3.org/2000/svg">
<g clip-path="url(#clip0_166_1676)">
<path d="M12 16H2C1.44771 16 1 15.5523 1 15V2C1 1.44771 1.44771 1 2 1H20C20.5523 1 21 1.44771 21 2V15C21 15.5523 20.5523 16 20 16H16" stroke="#505258" stroke-width="2" stroke-linecap="round" stroke-linejoin="round"/>
<path d="M5 5H17" stroke="#505258" stroke-width="2" stroke-linecap="round" stroke-linejoin="round"/>
<path d="M5 8.5H8" stroke="#505258" stroke-width="2" stroke-linecap="round" stroke-linejoin="round"/>
<path d="M5 12H7" stroke="#505258" stroke-width="2" stroke-linecap="round" stroke-linejoin="round"/>
<path d="M14 14.5C15.6568 14.5 17 13.1568 17 11.5C17 9.84315 15.6568 8.5 14 8.5C12.3432 8.5 11 9.84315 11 11.5C11 13.1568 12.3432 14.5 14 14.5Z" stroke="#505258" stroke-width="2"/>
<path d="M14 18L16 19V13.7361C16 13.7361 15.4297 14.5 14 14.5C12.5703 14.5 12 13.75 12 13.75V19L14 18Z" stroke="#505258" stroke-width="2" stroke-linecap="round" stroke-linejoin="round"/>
</g>
<defs>
<clipPath id="clip0_166_1676">
<rect width="22" height="20" fill="white"/>
</clipPath>
</defs>
</svg>
