<svg width="14" height="14" viewBox="0 0 14 14" fill="none" xmlns="http://www.w3.org/2000/svg">
<path d="M4.5 10C4.5 9.86739 4.44732 9.74021 4.35355 9.64645C4.25979 9.55268 4.13261 9.5 4 9.5H2C1.86739 9.5 1.74021 9.55268 1.64645 9.64645C1.55268 9.74021 1.5 9.86739 1.5 10V12C1.5 12.1326 1.55268 12.2598 1.64645 12.3536C1.74021 12.4473 1.86739 12.5 2 12.5H4C4.13261 12.5 4.25979 12.4473 4.35355 12.3536C4.44732 12.2598 4.5 12.1326 4.5 12V10ZM11.75 8V10.25H14V11.75H11.75V14H10.25V11.75H8V10.25H10.25V8H11.75ZM4.5 2C4.5 1.86739 4.44732 1.74021 4.35355 1.64645C4.25979 1.55268 4.13261 1.5 4 1.5H2C1.86739 1.5 1.74021 1.55268 1.64645 1.64645C1.55268 1.74021 1.5 1.86739 1.5 2V4C1.5 4.13261 1.55268 4.25979 1.64645 4.35355C1.74021 4.44732 1.86739 4.5 2 4.5H4C4.13261 4.5 4.25979 4.44732 4.35355 4.35355C4.44732 4.25979 4.5 4.13261 4.5 4V2ZM12.5 2C12.5 1.86739 12.4473 1.74021 12.3536 1.64645C12.2598 1.55268 12.1326 1.5 12 1.5H10C9.86739 1.5 9.74021 1.55268 9.64645 1.64645C9.55268 1.74021 9.5 1.86739 9.5 2V4C9.5 4.13261 9.55268 4.25979 9.64645 4.35355C9.74021 4.44732 9.86739 4.5 10 4.5H12C12.1326 4.5 12.2598 4.44732 12.3536 4.35355C12.4473 4.25979 12.5 4.13261 12.5 4V2ZM6 12C6 12.5304 5.78929 13.0391 5.41421 13.4142C5.03914 13.7893 4.53043 14 4 14H2C1.46957 14 0.960859 13.7893 0.585786 13.4142C0.210714 13.0391 0 12.5304 0 12V10C0 9.46957 0.210714 8.96086 0.585786 8.58579C0.960859 8.21071 1.46957 8 2 8H4C4.53043 8 5.03914 8.21071 5.41421 8.58579C5.78929 8.96086 6 9.46957 6 10V12ZM6 4C6 4.53043 5.78929 5.03914 5.41421 5.41421C5.03914 5.78929 4.53043 6 4 6H2C1.46957 6 0.960859 5.78929 0.585786 5.41421C0.210714 5.03914 0 4.53043 0 4V2C0 1.46957 0.210714 0.960859 0.585786 0.585786C0.960859 0.210714 1.46957 0 2 0H4C4.53043 0 5.03914 0.210714 5.41421 0.585786C5.78929 0.960859 6 1.46957 6 2V4ZM14 4C14 4.53043 13.7893 5.03914 13.4142 5.41421C13.0391 5.78929 12.5304 6 12 6H10C9.46957 6 8.96086 5.78929 8.58579 5.41421C8.21071 5.03914 8 4.53043 8 4V2C8 1.46957 8.21071 0.960859 8.58579 0.585786C8.96086 0.210714 9.46957 0 10 0H12C12.5304 0 13.0391 0.210714 13.4142 0.585786C13.7893 0.960859 14 1.46957 14 2V4Z" fill="#505258"/>
</svg>
