<svg width="16" height="16" viewBox="0 0 16 16" fill="none" xmlns="http://www.w3.org/2000/svg">
<path d="M16 10.6668V14.0001C16 14.5305 15.7893 15.0392 15.4142 15.4142C15.0391 15.7893 14.5304 16 14 16H10.6667C9.7314 15.999 8.81283 15.7522 8.0031 15.2841C7.19337 14.8161 6.52097 14.1433 6.05333 13.3334C6.55591 13.3298 7.05678 13.2744 7.548 13.1681C7.9221 13.6358 8.39666 14.0134 8.93653 14.2728C9.47639 14.5322 10.0677 14.6669 10.6667 14.6667H14C14.1768 14.6667 14.3464 14.5965 14.4714 14.4714C14.5964 14.3464 14.6667 14.1769 14.6667 14.0001V10.6668C14.6665 10.0676 14.5315 9.4762 14.2716 8.93634C14.0117 8.39648 13.6336 7.92204 13.1653 7.54822C13.2726 7.05711 13.3289 6.55625 13.3333 6.05359C14.1433 6.52121 14.8161 7.1936 15.2841 8.00331C15.7522 8.81301 15.999 9.73156 16 10.6668ZM11.9847 6.43425C12.047 5.57536 11.9237 4.71312 11.6232 3.90611C11.3227 3.0991 10.852 2.36624 10.2431 1.75731C9.63412 1.14839 8.90123 0.677685 8.0942 0.377176C7.28717 0.0766667 6.42491 -0.0466017 5.566 0.0157472C4.04394 0.189564 2.63795 0.913841 1.61278 2.05219C0.587618 3.19054 0.0140181 4.66441 0 6.19625L0 9.55617C0 11.2441 1.00467 12.0001 2 12.0001H5.8C7.33254 11.9869 8.80734 11.4137 9.94652 10.3885C11.0857 9.36331 11.8106 7.95689 11.9847 6.43425ZM9.3 2.70101C9.77329 3.17533 10.1392 3.74578 10.3729 4.37376C10.6066 5.00174 10.7027 5.67259 10.6547 6.34092C10.5124 7.53 9.94033 8.62607 9.04622 9.4228C8.1521 10.2195 6.99759 10.662 5.8 10.6668H2C1.38133 10.6668 1.33333 9.81683 1.33333 9.55617V6.19625C1.33889 4.9992 1.78177 3.84545 2.57861 2.95212C3.37546 2.05879 4.47133 1.48749 5.66 1.34571C5.77067 1.33771 5.88133 1.33371 5.992 1.33371C6.60618 1.33314 7.21445 1.4536 7.78206 1.68821C8.34966 1.92282 8.86547 2.26697 9.3 2.70101Z" fill="#505258"/>
</svg>
