<svg width="14" height="14" viewBox="0 0 14 14" fill="none" xmlns="http://www.w3.org/2000/svg">
<path d="M12.5 2.09608C12.5001 2.01439 12.4801 1.93393 12.4419 1.86173C12.4037 1.78953 12.3484 1.72779 12.2808 1.68191C12.2132 1.63603 12.1354 1.60741 12.0542 1.59855C11.973 1.58969 11.8909 1.60086 11.815 1.63108L6.5 3.75608V8.49208L11.815 10.6181C11.8909 10.6483 11.973 10.6595 12.0542 10.6506C12.1354 10.6418 12.2132 10.6131 12.2808 10.5673C12.3484 10.5214 12.4037 10.4596 12.4419 10.3874C12.4801 10.3152 12.5001 10.2348 12.5 10.1531V2.09608ZM4 12.0001C4 12.1327 4.05268 12.2599 4.14645 12.3536C4.24021 12.4474 4.36739 12.5001 4.5 12.5001H5V9.75008H4V12.0001ZM1.5 7.75008C1.5 7.88269 1.55268 8.00987 1.64645 8.10364C1.74021 8.1974 1.86739 8.25008 2 8.25008H5V4.00008H2C1.86739 4.00008 1.74021 4.05276 1.64645 4.14653C1.55268 4.2403 1.5 4.36747 1.5 4.50008V7.75008ZM14 10.1521C14 10.479 13.9199 10.8008 13.7667 11.0896C13.6135 11.3783 13.3919 11.6251 13.1212 11.8084C12.8505 11.9916 12.5391 12.1057 12.2141 12.1407C11.8891 12.1757 11.5605 12.1305 11.257 12.0091L6.5 10.1071V13.2501C6.5 13.449 6.42098 13.6398 6.28033 13.7804C6.13968 13.9211 5.94891 14.0001 5.75 14.0001H4.5C3.96957 14.0001 3.46086 13.7894 3.08579 13.4143C2.71071 13.0392 2.5 12.5305 2.5 12.0001V9.75008H2C1.46957 9.75008 0.960859 9.53937 0.585786 9.1643C0.210714 8.78922 0 8.28051 0 7.75008V4.50008C0 3.96965 0.210714 3.46094 0.585786 3.08587C0.960859 2.7108 1.46957 2.50008 2 2.50008H5.605L11.257 0.239082C11.5605 0.11765 11.8891 0.0724499 12.2141 0.107439C12.5391 0.142428 12.8505 0.256539 13.1212 0.439785C13.3919 0.623031 13.6135 0.869827 13.7667 1.15857C13.9199 1.44732 14 1.76921 14 2.09608V10.1521Z" fill="#505258"/>
</svg>
