<svg width="16" height="17" viewBox="0 0 16 17" fill="none" xmlns="http://www.w3.org/2000/svg">
<path fill-rule="evenodd" clip-rule="evenodd" d="M8 2C6.27609 2 4.62279 2.68482 3.40381 3.90381C2.18482 5.12279 1.5 6.77609 1.5 8.5C1.5 10.2239 2.18482 11.8772 3.40381 13.0962C4.62279 14.3152 6.27609 15 8 15C9.72391 15 11.3772 14.3152 12.5962 13.0962C13.8152 11.8772 14.5 10.2239 14.5 8.5C14.5 6.77609 13.8152 5.12279 12.5962 3.90381C11.3772 2.68482 9.72391 2 8 2ZM0 8.5C0 6.37827 0.842855 4.34344 2.34315 2.84315C3.84344 1.34285 5.87827 0.5 8 0.5C10.1217 0.5 12.1566 1.34285 13.6569 2.84315C15.1571 4.34344 16 6.37827 16 8.5C16 10.6217 15.1571 12.6566 13.6569 14.1569C12.1566 15.6571 10.1217 16.5 8 16.5C5.87827 16.5 3.84344 15.6571 2.34315 14.1569C0.842855 12.6566 0 10.6217 0 8.5ZM8 5.5C7.414 5.5 7 5.914 7 6.5H5.5C5.5 5.086 6.586 4 8 4C9.414 4 10.5 5.086 10.5 6.5C10.5 7.633 9.787 8.206 9.338 8.558C8.827 8.96 8.75 9.052 8.75 9.25V10H7.25V9.25C7.25 8.273 7.939 7.743 8.328 7.444L8.412 7.379C8.838 7.044 9 6.867 9 6.5C9 5.914 8.586 5.5 8 5.5Z" fill="#505258"/>
<path d="M9 12C9 12.2652 8.89464 12.5196 8.70711 12.7071C8.51957 12.8946 8.26522 13 8 13C7.73478 13 7.48043 12.8946 7.29289 12.7071C7.10536 12.5196 7 12.2652 7 12C7 11.7348 7.10536 11.4804 7.29289 11.2929C7.48043 11.1054 7.73478 11 8 11C8.26522 11 8.51957 11.1054 8.70711 11.2929C8.89464 11.4804 9 11.7348 9 12Z" fill="#505258"/>
</svg>
