<svg width="21" height="15" viewBox="0 0 21 15" fill="none" xmlns="http://www.w3.org/2000/svg">
<path d="M10.8284 14.6016H19.1253C19.8636 14.6016 20.1565 14.2969 20.1565 13.5469V1.05469C20.1565 0.30469 19.8636 0 19.1253 0H10.8284C10.0901 0 9.79719 0.30469 9.79719 1.05469V13.5469C9.79719 14.2969 10.0901 14.6016 10.8284 14.6016ZM0.000275517 7.28901C0.0119955 7.71091 0.351846 8.08591 0.761996 8.08591H4.04325L5.77763 8.01561L4.80497 8.94141L3.53935 10.1953C3.387 10.3359 3.31669 10.5469 3.31669 10.7461C3.31669 11.168 3.60966 11.4726 4.0081 11.4726C4.24247 11.4726 4.41825 11.3789 4.5706 11.1914L7.68779 7.86331C7.88699 7.65231 7.94559 7.50001 7.94559 7.28901C7.94559 7.08981 7.88699 6.92581 7.68779 6.71481L4.5706 3.38672C4.41825 3.21093 4.24247 3.11719 4.0081 3.11719C3.60966 3.11719 3.31669 3.42187 3.31669 3.84375C3.31669 4.04297 3.387 4.2539 3.53935 4.39453L4.80497 5.63672L5.77763 6.56251L4.04325 6.5039H0.761996C0.351846 6.5039 -0.0114345 6.86721 0.000275517 7.28901Z" fill="#E96567"/>
</svg>
