<svg width="16" height="17" viewBox="0 0 16 17" fill="none" xmlns="http://www.w3.org/2000/svg">
<path d="M6.42009 14C6.5617 14.2992 6.78537 14.5521 7.06508 14.7292C7.34479 14.9063 7.66904 15.0003 8.00009 15.0003C8.33114 15.0003 8.65538 14.9063 8.93509 14.7292C9.2148 14.5521 9.43848 14.2992 9.58009 14H6.42009ZM4.50009 9.136C4.50009 9.351 4.44009 9.562 4.32509 9.744L2.60309 12.5H13.3981L11.6751 9.744C11.5611 9.56168 11.5004 9.35104 11.5001 9.136V5.5C11.5001 4.57174 11.1313 3.6815 10.475 3.02513C9.81859 2.36875 8.92835 2 8.00009 2C7.07183 2 6.18159 2.36875 5.52522 3.02513C4.86884 3.6815 4.50009 4.57174 4.50009 5.5V9.136ZM13.0001 9.036L14.7881 11.896C14.9182 12.1041 14.9903 12.3433 14.9968 12.5887C15.0032 12.8341 14.9439 13.0768 14.8249 13.2915C14.7059 13.5062 14.5316 13.6852 14.3201 13.8097C14.1086 13.9343 13.8676 14 13.6221 14H11.1621C10.9931 14.7115 10.589 15.3453 10.0152 15.7987C9.44139 16.2522 8.73143 16.4988 8.00009 16.4988C7.26875 16.4988 6.55879 16.2522 5.985 15.7987C5.4112 15.3453 5.00712 14.7115 4.83809 14H2.37809C2.13261 14 1.89159 13.9343 1.68008 13.8097C1.46856 13.6852 1.29425 13.5062 1.17526 13.2915C1.05627 13.0768 0.996932 12.8341 1.00341 12.5887C1.00988 12.3433 1.08194 12.1041 1.21209 11.896L3.00009 9.037V5.5C3.00009 4.17392 3.52687 2.90215 4.46456 1.96447C5.40224 1.02678 6.67401 0.5 8.00009 0.5C9.32617 0.5 10.5979 1.02678 11.5356 1.96447C12.4733 2.90215 13.0001 4.17392 13.0001 5.5V9.036Z" fill="#505258"/>
</svg>
