<svg width="16" height="17" viewBox="0 0 16 17" fill="none" xmlns="http://www.w3.org/2000/svg">
<path fill-rule="evenodd" clip-rule="evenodd" d="M2 3C1.86739 3 1.74021 3.05268 1.64645 3.14645C1.55268 3.24021 1.5 3.36739 1.5 3.5V13.5C1.5 13.6326 1.55268 13.7598 1.64645 13.8536C1.74021 13.9473 1.86739 14 2 14H4V3H2ZM5.5 3V14H14C14.1326 14 14.2598 13.9473 14.3536 13.8536C14.4473 13.7598 14.5 13.6326 14.5 13.5V3.5C14.5 3.36739 14.4473 3.24021 14.3536 3.14645C14.2598 3.05268 14.1326 3 14 3H5.5ZM0 3.5C0 2.96957 0.210714 2.46086 0.585786 2.08579C0.960859 1.71071 1.46957 1.5 2 1.5H14C14.5304 1.5 15.0391 1.71071 15.4142 2.08579C15.7893 2.46086 16 2.96957 16 3.5V13.5C16 14.0304 15.7893 14.5391 15.4142 14.9142C15.0391 15.2893 14.5304 15.5 14 15.5H2C1.46957 15.5 0.960859 15.2893 0.585786 14.9142C0.210714 14.5391 0 14.0304 0 13.5V3.5ZM7.97 7.97L10.47 5.47L11.53 6.53L9.56 8.5L11.53 10.47L10.47 11.53L7.97 9.03C7.82955 8.88937 7.75066 8.69875 7.75066 8.5C7.75066 8.30125 7.82955 8.11063 7.97 7.97Z" fill="#505258"/>
</svg>
