<svg width="6" height="6" viewBox="0 0 6 6" fill="none" xmlns="http://www.w3.org/2000/svg">
<path d="M3.88739 3.05438H4.44273V3.88739H5.27574V4.44273H4.44273V5.27574H3.88739V4.44273H3.05438V3.88739H3.88739V3.05438ZM0.555341 0H4.44273C4.75094 0 4.99807 0.247127 4.99807 0.555341V2.72117C4.82869 2.62399 4.64265 2.55457 4.44273 2.52125V0.555341H0.555341V4.44273H2.52125C2.55457 4.64265 2.62399 4.82869 2.72117 4.99807H0.555341C0.247127 4.99807 0 4.75094 0 4.44273V0.555341C0 0.247127 0.247127 0 0.555341 0ZM1.11068 1.11068H3.88739V1.66602H1.11068V1.11068ZM1.11068 2.22137H3.88739V2.52125C3.65137 2.56012 3.43479 2.64898 3.24319 2.77671H1.11068V2.22137ZM1.11068 3.33205H2.49904V3.88739H1.11068V3.33205Z" fill="#505258"/>
</svg>
