<svg width="5" height="6" viewBox="0 0 5 6" fill="none" xmlns="http://www.w3.org/2000/svg">
<path d="M4.44273 4.99807V1.94369H0.555341V4.99807H4.44273ZM3.60972 0H4.16506V0.555341H4.44273C4.75094 0.555341 4.99807 0.805245 4.99807 1.11068V4.99807C4.99807 5.30629 4.75094 5.55341 4.44273 5.55341H0.555341C0.247127 5.55341 0 5.30351 0 4.99807V1.11068C0 0.802468 0.247127 0.555341 0.555341 0.555341H0.833012V0H1.38835V0.555341H3.60972V0ZM2.22137 2.3602H2.77671V3.19321H3.60972V3.74855H2.77671V4.58157H2.22137V3.74855H1.38835V3.19321H2.22137V2.3602Z" fill="#505258"/>
</svg>
