<svg width="16" height="17" viewBox="0 0 16 17" fill="none" xmlns="http://www.w3.org/2000/svg">
<path fill-rule="evenodd" clip-rule="evenodd" d="M6.05789 0.962C6.11475 0.825283 6.21081 0.708456 6.33395 0.62624C6.4571 0.544024 6.60182 0.500099 6.74989 0.5H9.24989C9.39796 0.500099 9.54269 0.544024 9.66583 0.62624C9.78898 0.708456 9.88504 0.825283 9.94189 0.962L10.9679 3.424L13.5459 3.05C13.6943 3.02848 13.8458 3.05195 13.9807 3.11737C14.1156 3.18279 14.2279 3.28716 14.3029 3.417L15.5529 5.583C15.6262 5.71008 15.6607 5.85588 15.652 6.00235C15.6432 6.14881 15.5918 6.2895 15.5039 6.407L13.9369 8.5L15.5039 10.593C15.6839 10.833 15.7039 11.158 15.5539 11.418L14.3039 13.583C14.2288 13.713 14.1164 13.8175 13.9813 13.8829C13.8461 13.9484 13.6945 13.9717 13.5459 13.95L10.9679 13.576L9.94189 16.039C9.88488 16.1755 9.78876 16.2921 9.66563 16.3742C9.54249 16.4562 9.39785 16.5 9.24989 16.5H6.74989C6.60194 16.5 6.45729 16.4562 6.33416 16.3742C6.21103 16.2921 6.11491 16.1755 6.05789 16.039L5.03189 13.576L2.45389 13.95C2.30548 13.9715 2.15403 13.9481 2.01909 13.8826C1.88415 13.8172 1.77192 13.7128 1.69689 13.583L0.446894 11.418C0.373354 11.2908 0.338795 11.1448 0.347506 10.9981C0.356217 10.8515 0.407815 10.7106 0.495894 10.593L2.06289 8.5L0.495894 6.407C0.407867 6.2896 0.356212 6.14896 0.347325 6.0025C0.338437 5.85603 0.372708 5.71018 0.445894 5.583L1.69589 3.417C1.77099 3.28698 1.88338 3.18249 2.01852 3.11706C2.15366 3.05163 2.30533 3.02827 2.45389 3.05L5.03189 3.424L6.05789 0.962ZM7.24989 2L6.37889 4.09C6.13689 4.67 5.53389 5.013 4.91189 4.923L2.74189 4.608L1.99289 5.904L3.31989 7.676C3.68589 8.164 3.68589 8.836 3.31989 9.324L1.99289 11.096L2.74189 12.392L4.91189 12.077C5.21409 12.0331 5.52231 12.091 5.78793 12.2417C6.05356 12.3923 6.26147 12.6271 6.37889 12.909L7.24989 15H8.74989L9.62089 12.91C9.86289 12.33 10.4659 11.987 11.0879 12.077L13.2579 12.392L14.0069 11.096L12.6799 9.324C12.5019 9.08617 12.4056 8.79708 12.4056 8.5C12.4056 8.20292 12.5019 7.91383 12.6799 7.676L14.0069 5.904L13.2579 4.608L11.0879 4.923C10.7854 4.96707 10.4769 4.90911 10.211 4.75825C9.94519 4.6074 9.73719 4.37227 9.61989 4.09L8.74989 2H7.24989ZM7.99989 7C7.60207 7 7.22054 7.15804 6.93923 7.43934C6.65793 7.72064 6.49989 8.10218 6.49989 8.5C6.49989 8.89782 6.65793 9.27936 6.93923 9.56066C7.22054 9.84196 7.60207 10 7.99989 10C8.39772 10 8.77925 9.84196 9.06055 9.56066C9.34186 9.27936 9.49989 8.89782 9.49989 8.5C9.49989 8.10218 9.34186 7.72064 9.06055 7.43934C8.77925 7.15804 8.39772 7 7.99989 7ZM4.99989 8.5C4.99989 7.70435 5.31596 6.94129 5.87857 6.37868C6.44118 5.81607 7.20424 5.5 7.99989 5.5C8.79554 5.5 9.55861 5.81607 10.1212 6.37868C10.6838 6.94129 10.9999 7.70435 10.9999 8.5C10.9999 9.29565 10.6838 10.0587 10.1212 10.6213C9.55861 11.1839 8.79554 11.5 7.99989 11.5C7.20424 11.5 6.44118 11.1839 5.87857 10.6213C5.31596 10.0587 4.99989 9.29565 4.99989 8.5Z" fill="#505258"/>
</svg>
