<svg width="16" height="16" viewBox="0 0 16 16" fill="none" xmlns="http://www.w3.org/2000/svg">
<path fill-rule="evenodd" clip-rule="evenodd" d="M8 1.5C6.66259 1.49985 5.35768 1.91226 4.26326 2.68097C3.16884 3.44968 2.33818 4.53727 1.88457 5.79541C1.43096 7.05355 1.37649 8.42098 1.72858 9.71122C2.08067 11.0015 2.82219 12.1517 3.852 13.005C4.01444 12.4278 4.36108 11.9195 4.83911 11.5576C5.31715 11.1956 5.90039 10.9998 6.5 11H9.5C10.76 11 11.823 11.848 12.148 13.005C13.1778 12.1517 13.9193 11.0015 14.2714 9.71122C14.6235 8.42098 14.569 7.05355 14.1154 5.79541C13.6618 4.53727 12.8312 3.44968 11.7367 2.68097C10.6423 1.91226 9.33741 1.49985 8 1.5ZM10.75 13.892V13.75C10.75 13.06 10.19 12.5 9.5 12.5H6.5C5.81 12.5 5.25 13.06 5.25 13.75V13.892L5.31 13.919C6.13 14.292 7.04 14.5 8 14.5C8.96 14.5 9.87 14.292 10.69 13.92C10.71 13.9093 10.73 13.9 10.75 13.892ZM0 8C0 5.87827 0.842855 3.84344 2.34315 2.34315C3.84344 0.842855 5.87827 0 8 0C10.1217 0 12.1566 0.842855 13.6569 2.34315C15.1571 3.84344 16 5.87827 16 8C16 10.1217 15.1571 12.1566 13.6569 13.6569C12.1566 15.1571 10.1217 16 8 16C5.87827 16 3.84344 15.1571 2.34315 13.6569C0.842855 12.1566 0 10.1217 0 8ZM8 4.5C7.46957 4.5 6.96086 4.71071 6.58579 5.08579C6.21071 5.46086 6 5.96957 6 6.5C6 7.03043 6.21071 7.53914 6.58579 7.91421C6.96086 8.28929 7.46957 8.5 8 8.5C8.53043 8.5 9.03914 8.28929 9.41421 7.91421C9.78929 7.53914 10 7.03043 10 6.5C10 5.96957 9.78929 5.46086 9.41421 5.08579C9.03914 4.71071 8.53043 4.5 8 4.5ZM4.5 6.5C4.5 5.57174 4.86875 4.6815 5.52513 4.02513C6.1815 3.36875 7.07174 3 8 3C8.92826 3 9.8185 3.36875 10.4749 4.02513C11.1313 4.6815 11.5 5.57174 11.5 6.5C11.5 7.42826 11.1313 8.3185 10.4749 8.97487C9.8185 9.63125 8.92826 10 8 10C7.07174 10 6.1815 9.63125 5.52513 8.97487C4.86875 8.3185 4.5 7.42826 4.5 6.5Z" fill="#505258"/>
</svg>
